<mxfile host="Electron" agent="Mozilla/5.0 (Windows NT 10.0; Win64; x64) AppleWebKit/537.36 (KHTML, like Gecko) draw.io/24.7.8 Chrome/128.0.6613.36 Electron/32.0.1 Safari/537.36" version="24.7.8">
  <diagram name="Page-1" id="Jgi37NrH8wvPOqcOAd4K">
    <mxGraphModel dx="1348" dy="805" grid="1" gridSize="10" guides="1" tooltips="1" connect="1" arrows="1" fold="1" page="1" pageScale="1" pageWidth="1169" pageHeight="827" math="0" shadow="0">
      <root>
        <mxCell id="0" />
        <mxCell id="1" parent="0" />
        <mxCell id="jl1yLb1zLC47aYGgmz0a-7" style="edgeStyle=orthogonalEdgeStyle;rounded=0;orthogonalLoop=1;jettySize=auto;html=1;exitX=0;exitY=0.75;exitDx=0;exitDy=0;entryX=0;entryY=0.5;entryDx=0;entryDy=0;strokeColor=#FF8000;strokeWidth=5;" edge="1" parent="1" source="MttIEdoipprTn2xN52k4-1" target="MttIEdoipprTn2xN52k4-4">
          <mxGeometry relative="1" as="geometry">
            <Array as="points">
              <mxPoint x="121.97" y="708" />
              <mxPoint x="121.97" y="299" />
            </Array>
          </mxGeometry>
        </mxCell>
        <mxCell id="jl1yLb1zLC47aYGgmz0a-9" style="edgeStyle=orthogonalEdgeStyle;rounded=0;orthogonalLoop=1;jettySize=auto;html=1;exitX=1;exitY=1;exitDx=0;exitDy=0;entryX=1;entryY=0.5;entryDx=0;entryDy=0;strokeWidth=5;strokeColor=#FF8000;" edge="1" parent="1" source="MttIEdoipprTn2xN52k4-1" target="MttIEdoipprTn2xN52k4-9">
          <mxGeometry relative="1" as="geometry">
            <Array as="points">
              <mxPoint x="1066.97" y="723.49" />
              <mxPoint x="1066.97" y="182.49" />
            </Array>
          </mxGeometry>
        </mxCell>
        <mxCell id="jl1yLb1zLC47aYGgmz0a-10" style="edgeStyle=orthogonalEdgeStyle;rounded=0;orthogonalLoop=1;jettySize=auto;html=1;exitX=1;exitY=0.75;exitDx=0;exitDy=0;entryX=1;entryY=0.5;entryDx=0;entryDy=0;strokeColor=#FF8000;strokeWidth=5;" edge="1" parent="1" source="MttIEdoipprTn2xN52k4-1" target="MttIEdoipprTn2xN52k4-2">
          <mxGeometry relative="1" as="geometry">
            <Array as="points">
              <mxPoint x="1046.97" y="708" />
              <mxPoint x="1046.97" y="462" />
            </Array>
          </mxGeometry>
        </mxCell>
        <mxCell id="jl1yLb1zLC47aYGgmz0a-12" style="edgeStyle=orthogonalEdgeStyle;rounded=0;orthogonalLoop=1;jettySize=auto;html=1;exitX=0.675;exitY=0.008;exitDx=0;exitDy=0;entryX=0.5;entryY=1;entryDx=0;entryDy=0;strokeColor=#FF8000;strokeWidth=5;exitPerimeter=0;" edge="1" parent="1" source="MttIEdoipprTn2xN52k4-1" target="MttIEdoipprTn2xN52k4-3">
          <mxGeometry relative="1" as="geometry">
            <Array as="points">
              <mxPoint x="505.97" y="664" />
            </Array>
          </mxGeometry>
        </mxCell>
        <mxCell id="MttIEdoipprTn2xN52k4-1" value="Dashboard&lt;div&gt;Climate Control&lt;/div&gt;&lt;div&gt;Panel&lt;/div&gt;" style="rounded=0;whiteSpace=wrap;html=1;" parent="1" vertex="1">
          <mxGeometry x="426.97" y="663.49" width="120" height="60" as="geometry" />
        </mxCell>
        <mxCell id="MttIEdoipprTn2xN52k4-2" value="Defrost&lt;div&gt;Gate&lt;/div&gt;" style="rhombus;whiteSpace=wrap;html=1;" parent="1" vertex="1">
          <mxGeometry x="751.97" y="422.49" width="80" height="80" as="geometry" />
        </mxCell>
        <mxCell id="jl1yLb1zLC47aYGgmz0a-16" style="edgeStyle=orthogonalEdgeStyle;shape=flexArrow;rounded=0;orthogonalLoop=1;jettySize=auto;html=1;exitX=1;exitY=0.5;exitDx=0;exitDy=0;entryX=0;entryY=0.5;entryDx=0;entryDy=0;strokeColor=none;fillColor=#30dcf3;" edge="1" parent="1" source="MttIEdoipprTn2xN52k4-3" target="MttIEdoipprTn2xN52k4-2">
          <mxGeometry relative="1" as="geometry" />
        </mxCell>
        <mxCell id="jl1yLb1zLC47aYGgmz0a-17" style="edgeStyle=orthogonalEdgeStyle;shape=flexArrow;rounded=0;orthogonalLoop=1;jettySize=auto;html=1;exitX=0.5;exitY=0;exitDx=0;exitDy=0;entryX=0;entryY=0.5;entryDx=0;entryDy=0;fillColor=#43ddf2;strokeColor=#43ddf2;fillStyle=hatch;" edge="1" parent="1" source="MttIEdoipprTn2xN52k4-3" target="MttIEdoipprTn2xN52k4-10">
          <mxGeometry relative="1" as="geometry" />
        </mxCell>
        <mxCell id="MttIEdoipprTn2xN52k4-3" value="Blend&lt;div&gt;Gate&lt;/div&gt;" style="rhombus;whiteSpace=wrap;html=1;" parent="1" vertex="1">
          <mxGeometry x="465.97" y="423.49" width="80" height="80" as="geometry" />
        </mxCell>
        <mxCell id="MttIEdoipprTn2xN52k4-4" value="Vent&lt;div&gt;Gate&lt;/div&gt;" style="rhombus;whiteSpace=wrap;html=1;" parent="1" vertex="1">
          <mxGeometry x="151.97" y="259" width="80" height="80" as="geometry" />
        </mxCell>
        <mxCell id="MttIEdoipprTn2xN52k4-5" value="Blower&lt;div&gt;Motor&lt;/div&gt;" style="shape=cylinder3;whiteSpace=wrap;html=1;boundedLbl=1;backgroundOutline=1;size=15;" parent="1" vertex="1">
          <mxGeometry x="351.97" y="423.49" width="60" height="80" as="geometry" />
        </mxCell>
        <mxCell id="jl1yLb1zLC47aYGgmz0a-11" style="edgeStyle=orthogonalEdgeStyle;rounded=0;orthogonalLoop=1;jettySize=auto;html=1;exitX=1;exitY=0.5;exitDx=0;exitDy=0;exitPerimeter=0;entryX=0;entryY=0.5;entryDx=0;entryDy=0;" edge="1" parent="1" source="MttIEdoipprTn2xN52k4-7" target="MttIEdoipprTn2xN52k4-8">
          <mxGeometry relative="1" as="geometry" />
        </mxCell>
        <mxCell id="MttIEdoipprTn2xN52k4-7" value="&lt;div&gt;Cowl&lt;/div&gt;Vacuum&lt;div&gt;Motor&lt;/div&gt;" style="shape=cylinder3;whiteSpace=wrap;html=1;boundedLbl=1;backgroundOutline=1;size=15;" parent="1" vertex="1">
          <mxGeometry x="476.97" y="142.49" width="60" height="80" as="geometry" />
        </mxCell>
        <mxCell id="MttIEdoipprTn2xN52k4-8" value="Cowl&lt;div&gt;Gate&lt;/div&gt;&lt;div&gt;L&lt;/div&gt;" style="rhombus;whiteSpace=wrap;html=1;" parent="1" vertex="1">
          <mxGeometry x="586.97" y="142.49" width="80" height="80" as="geometry" />
        </mxCell>
        <mxCell id="MttIEdoipprTn2xN52k4-9" value="Cowl&lt;div&gt;Gate&lt;/div&gt;&lt;div&gt;R&lt;/div&gt;" style="rhombus;whiteSpace=wrap;html=1;" parent="1" vertex="1">
          <mxGeometry x="946.97" y="142.49" width="80" height="80" as="geometry" />
        </mxCell>
        <mxCell id="jl1yLb1zLC47aYGgmz0a-18" style="edgeStyle=orthogonalEdgeStyle;shape=flexArrow;rounded=0;orthogonalLoop=1;jettySize=auto;html=1;exitX=1;exitY=0.5;exitDx=0;exitDy=0;entryX=0;entryY=0.5;entryDx=0;entryDy=0;fillColor=#FF3333;strokeColor=#FF3333;fillStyle=hatch;" edge="1" parent="1" source="MttIEdoipprTn2xN52k4-10" target="MttIEdoipprTn2xN52k4-2">
          <mxGeometry relative="1" as="geometry" />
        </mxCell>
        <mxCell id="MttIEdoipprTn2xN52k4-10" value="Heater&lt;div&gt;Core&lt;/div&gt;" style="triangle;whiteSpace=wrap;html=1;align=left;spacingLeft=4;" parent="1" vertex="1">
          <mxGeometry x="596.97" y="353" width="60" height="80" as="geometry" />
        </mxCell>
        <mxCell id="MttIEdoipprTn2xN52k4-18" value="Defroster Vents" style="rounded=0;whiteSpace=wrap;html=1;" parent="1" vertex="1">
          <mxGeometry x="731.97" y="343.49" width="120" height="60" as="geometry" />
        </mxCell>
        <mxCell id="MttIEdoipprTn2xN52k4-19" value="Footwell Vents" style="rounded=0;whiteSpace=wrap;html=1;" parent="1" vertex="1">
          <mxGeometry x="731.97" y="523.49" width="120" height="60" as="geometry" />
        </mxCell>
        <mxCell id="jl1yLb1zLC47aYGgmz0a-1" value="Top - Front (Towards Engine)" style="text;strokeColor=none;align=center;fillColor=none;html=1;verticalAlign=middle;whiteSpace=wrap;rounded=0;fontSize=26;" vertex="1" parent="1">
          <mxGeometry x="399" width="371" height="30" as="geometry" />
        </mxCell>
        <mxCell id="jl1yLb1zLC47aYGgmz0a-2" value="Offside (Driver Side)" style="text;strokeColor=none;align=center;fillColor=none;html=1;verticalAlign=middle;whiteSpace=wrap;rounded=0;fontSize=26;horizontal=0;" vertex="1" parent="1">
          <mxGeometry x="1118" y="79" width="51" height="670" as="geometry" />
        </mxCell>
        <mxCell id="jl1yLb1zLC47aYGgmz0a-3" value="Nearside (Passenger Side)" style="text;strokeColor=none;align=center;fillColor=none;html=1;verticalAlign=middle;whiteSpace=wrap;rounded=0;fontSize=26;horizontal=0;direction=west;" vertex="1" parent="1">
          <mxGeometry y="79" width="51" height="670" as="geometry" />
        </mxCell>
        <mxCell id="jl1yLb1zLC47aYGgmz0a-6" style="edgeStyle=orthogonalEdgeStyle;rounded=0;orthogonalLoop=1;jettySize=auto;html=1;exitX=0;exitY=1;exitDx=0;exitDy=0;entryX=0;entryY=0.5;entryDx=0;entryDy=0;entryPerimeter=0;strokeColor=#97D077;strokeWidth=5;" edge="1" parent="1" source="MttIEdoipprTn2xN52k4-1" target="MttIEdoipprTn2xN52k4-7">
          <mxGeometry relative="1" as="geometry">
            <Array as="points">
              <mxPoint x="101.97" y="724" />
              <mxPoint x="101.97" y="182" />
            </Array>
          </mxGeometry>
        </mxCell>
        <mxCell id="jl1yLb1zLC47aYGgmz0a-8" style="edgeStyle=orthogonalEdgeStyle;rounded=0;orthogonalLoop=1;jettySize=auto;html=1;exitX=0;exitY=0.5;exitDx=0;exitDy=0;entryX=0;entryY=0.5;entryDx=0;entryDy=0;entryPerimeter=0;strokeColor=#FF3399;strokeWidth=5;" edge="1" parent="1" source="MttIEdoipprTn2xN52k4-1" target="MttIEdoipprTn2xN52k4-5">
          <mxGeometry relative="1" as="geometry">
            <Array as="points">
              <mxPoint x="141.97" y="694" />
              <mxPoint x="141.97" y="464" />
            </Array>
          </mxGeometry>
        </mxCell>
        <mxCell id="jl1yLb1zLC47aYGgmz0a-20" style="edgeStyle=orthogonalEdgeStyle;shape=flexArrow;rounded=0;orthogonalLoop=1;jettySize=auto;html=1;entryX=0;entryY=0.5;entryDx=0;entryDy=0;fillColor=#43ddf2;strokeColor=none;exitX=1;exitY=0.5;exitDx=0;exitDy=0;exitPerimeter=0;" edge="1" parent="1" source="MttIEdoipprTn2xN52k4-5" target="MttIEdoipprTn2xN52k4-3">
          <mxGeometry relative="1" as="geometry">
            <mxPoint x="441.97" y="319" as="sourcePoint" />
            <mxPoint x="441.97" y="443" as="targetPoint" />
          </mxGeometry>
        </mxCell>
        <mxCell id="jl1yLb1zLC47aYGgmz0a-21" style="edgeStyle=orthogonalEdgeStyle;shape=flexArrow;rounded=0;orthogonalLoop=1;jettySize=auto;html=1;entryX=0.5;entryY=1;entryDx=0;entryDy=0;fillColor=#43ddf2;strokeColor=none;exitX=0.5;exitY=0;exitDx=0;exitDy=0;" edge="1" parent="1" source="MttIEdoipprTn2xN52k4-2" target="MttIEdoipprTn2xN52k4-18">
          <mxGeometry relative="1" as="geometry">
            <mxPoint x="931.97" y="509" as="sourcePoint" />
            <mxPoint x="931.97" y="633" as="targetPoint" />
          </mxGeometry>
        </mxCell>
        <mxCell id="jl1yLb1zLC47aYGgmz0a-22" style="edgeStyle=orthogonalEdgeStyle;shape=flexArrow;rounded=0;orthogonalLoop=1;jettySize=auto;html=1;entryX=0.5;entryY=0;entryDx=0;entryDy=0;fillColor=#43ddf2;strokeColor=none;" edge="1" parent="1" source="MttIEdoipprTn2xN52k4-2" target="MttIEdoipprTn2xN52k4-19">
          <mxGeometry relative="1" as="geometry">
            <mxPoint x="801.97" y="432" as="sourcePoint" />
            <mxPoint x="801.97" y="413" as="targetPoint" />
          </mxGeometry>
        </mxCell>
        <mxCell id="jl1yLb1zLC47aYGgmz0a-23" value="Atmosphere" style="ellipse;shape=cloud;whiteSpace=wrap;html=1;" vertex="1" parent="1">
          <mxGeometry x="731.97" y="79" width="120" height="80" as="geometry" />
        </mxCell>
        <mxCell id="jl1yLb1zLC47aYGgmz0a-24" style="edgeStyle=orthogonalEdgeStyle;shape=flexArrow;rounded=0;orthogonalLoop=1;jettySize=auto;html=1;entryX=1;entryY=0.5;entryDx=0;entryDy=0;fillColor=#43ddf2;strokeColor=none;exitX=0.55;exitY=0.95;exitDx=0;exitDy=0;exitPerimeter=0;" edge="1" parent="1" source="jl1yLb1zLC47aYGgmz0a-23" target="MttIEdoipprTn2xN52k4-8">
          <mxGeometry relative="1" as="geometry">
            <mxPoint x="771.97" y="209" as="sourcePoint" />
            <mxPoint x="771.97" y="333" as="targetPoint" />
            <Array as="points">
              <mxPoint x="797.97" y="182" />
              <mxPoint x="699.97" y="182" />
            </Array>
          </mxGeometry>
        </mxCell>
        <mxCell id="jl1yLb1zLC47aYGgmz0a-25" style="edgeStyle=orthogonalEdgeStyle;shape=flexArrow;rounded=0;orthogonalLoop=1;jettySize=auto;html=1;entryX=0;entryY=0.5;entryDx=0;entryDy=0;fillColor=#43ddf2;strokeColor=default;exitX=0.55;exitY=0.95;exitDx=0;exitDy=0;exitPerimeter=0;fillStyle=hatch;" edge="1" parent="1" source="jl1yLb1zLC47aYGgmz0a-23" target="MttIEdoipprTn2xN52k4-9">
          <mxGeometry relative="1" as="geometry">
            <mxPoint x="842.97" y="219" as="sourcePoint" />
            <mxPoint x="711.97" y="246" as="targetPoint" />
            <Array as="points">
              <mxPoint x="797.97" y="183" />
            </Array>
          </mxGeometry>
        </mxCell>
        <mxCell id="jl1yLb1zLC47aYGgmz0a-26" style="edgeStyle=orthogonalEdgeStyle;shape=flexArrow;rounded=0;orthogonalLoop=1;jettySize=auto;html=1;entryX=0.5;entryY=0;entryDx=0;entryDy=0;fillColor=#43ddf2;strokeColor=none;exitX=0.5;exitY=1;exitDx=0;exitDy=0;entryPerimeter=0;" edge="1" parent="1" source="MttIEdoipprTn2xN52k4-8" target="MttIEdoipprTn2xN52k4-5">
          <mxGeometry relative="1" as="geometry">
            <mxPoint x="621.97" y="263.49" as="sourcePoint" />
            <mxPoint x="621.97" y="387.49" as="targetPoint" />
            <Array as="points">
              <mxPoint x="626.97" y="299" />
              <mxPoint x="381.97" y="299" />
            </Array>
          </mxGeometry>
        </mxCell>
        <mxCell id="jl1yLb1zLC47aYGgmz0a-27" style="edgeStyle=orthogonalEdgeStyle;shape=flexArrow;rounded=0;orthogonalLoop=1;jettySize=auto;html=1;entryX=1;entryY=0.5;entryDx=0;entryDy=0;fillColor=#43ddf2;strokeColor=default;exitX=0.5;exitY=1;exitDx=0;exitDy=0;fillStyle=hatch;" edge="1" parent="1" source="MttIEdoipprTn2xN52k4-8" target="MttIEdoipprTn2xN52k4-4">
          <mxGeometry relative="1" as="geometry">
            <mxPoint x="636.97" y="232" as="sourcePoint" />
            <mxPoint x="391.97" y="433" as="targetPoint" />
          </mxGeometry>
        </mxCell>
        <mxCell id="jl1yLb1zLC47aYGgmz0a-32" value="* Only active when VENT mode selected" style="text;html=1;align=center;verticalAlign=middle;whiteSpace=wrap;rounded=0;" vertex="1" parent="1">
          <mxGeometry x="811.97" y="199" width="110" height="40" as="geometry" />
        </mxCell>
        <mxCell id="jl1yLb1zLC47aYGgmz0a-33" value="* Only active when VENT mode selected" style="text;html=1;align=center;verticalAlign=middle;whiteSpace=wrap;rounded=0;" vertex="1" parent="1">
          <mxGeometry x="261.97" y="309" width="100" height="40" as="geometry" />
        </mxCell>
        <mxCell id="jl1yLb1zLC47aYGgmz0a-34" value="Key" style="text;html=1;align=center;verticalAlign=middle;whiteSpace=wrap;rounded=0;fontStyle=3" vertex="1" parent="1">
          <mxGeometry x="51" y="40" width="60" height="30" as="geometry" />
        </mxCell>
        <mxCell id="jl1yLb1zLC47aYGgmz0a-36" value="Air Flow Path" style="ellipse;whiteSpace=wrap;html=1;aspect=fixed;fontColor=#000000;fillColor=#30dcf3;strokeColor=none;" vertex="1" parent="1">
          <mxGeometry x="56" y="70" width="50" height="50" as="geometry" />
        </mxCell>
        <mxCell id="jl1yLb1zLC47aYGgmz0a-37" value="Vacuum Line" style="ellipse;whiteSpace=wrap;html=1;aspect=fixed;fontColor=#000000;fillColor=#97D077;strokeColor=none;" vertex="1" parent="1">
          <mxGeometry x="111" y="70" width="50" height="50" as="geometry" />
        </mxCell>
        <mxCell id="jl1yLb1zLC47aYGgmz0a-38" value="Wire Linkage" style="ellipse;whiteSpace=wrap;html=1;aspect=fixed;fontColor=#000000;fillColor=#FF8000;strokeColor=none;" vertex="1" parent="1">
          <mxGeometry x="169.03" y="70" width="50" height="50" as="geometry" />
        </mxCell>
        <mxCell id="jl1yLb1zLC47aYGgmz0a-39" value="Electrical Cable" style="ellipse;whiteSpace=wrap;html=1;aspect=fixed;fontColor=#000000;fillColor=#FF3399;strokeColor=none;" vertex="1" parent="1">
          <mxGeometry x="229.03" y="70" width="50" height="50" as="geometry" />
        </mxCell>
      </root>
    </mxGraphModel>
  </diagram>
</mxfile>
